<svg width="640" height="640" xmlns="http://www.w3.org/2000/svg" clip-rule="evenodd" fill-rule="evenodd" image-rendering="optimizeQuality" text-rendering="geometricPrecision" shape-rendering="geometricPrecision">

 <g>
  <title>Layer 1</title>
  <path fill="#ffffff" id="svg_1" d="m546.704,93.31787c-60.178,-60.306 -140.222,-93.472 -225.475,-93.472c-175.62,-0.001 -318.559,142.95 -318.559,318.7c0,56.139 14.705,111.05 42.567,159.297l-45.236,165.18l168.959,-44.34c46.595,25.382 99.013,38.835 152.222,38.835l0.13,0c175.632,0 318.688,-142.95 318.688,-318.689c0,-85.182 -33.166,-165.179 -93.344,-225.463l0.047,-0.047l0.001,-0.001zm-225.381,490.425c-47.599,0 -94.218,-12.827 -134.895,-36.957l-9.697,-5.788l-100.265,26.257l26.776,-97.726l-6.272,-10.04c-26.658,-42.096 -40.57,-90.817 -40.57,-140.931c0,-146.082 118.832,-264.96 265.066,-264.96c70.713,0 137.328,27.65 187.302,77.622c49.996,50.127 77.493,116.588 77.493,187.42c-0.118,146.187 -118.95,265.066 -264.96,265.066l0.024,0.036l-0.002,0.001zm145.218,-198.465c-7.913,-4.028 -47.115,-23.233 -54.39,-25.89c-7.276,-2.658 -12.58,-4.028 -17.977,4.027c-5.268,7.914 -20.587,25.89 -25.252,31.265c-4.666,5.28 -9.284,6.035 -17.197,2.008c-7.914,-4.028 -33.674,-12.426 -64.064,-39.568c-23.634,-21.095 -39.662,-47.221 -44.328,-55.134c-4.665,-7.914 -0.52,-12.308 3.532,-16.193c3.661,-3.544 7.925,-9.284 11.941,-13.95c4.028,-4.665 5.28,-7.925 7.925,-13.31c2.658,-5.28 1.359,-9.946 -0.637,-13.95c-2.008,-4.015 -17.977,-43.217 -24.485,-59.185c-6.39,-15.603 -13.063,-13.43 -17.965,-13.701c-4.665,-0.237 -9.945,-0.237 -15.2,-0.237c-5.257,0 -13.95,1.996 -21.225,9.933c-7.276,7.914 -27.898,27.26 -27.898,66.45c0,39.201 28.512,77.009 32.516,82.407c4.027,5.267 56.162,85.784 136.029,120.238c18.98,8.161 33.803,13.063 45.355,16.854c19.098,6.024 36.425,5.15 50.126,3.13c15.32,-2.256 47.115,-19.229 53.788,-37.831c6.662,-18.615 6.662,-34.536 4.666,-37.831c-1.89,-3.544 -7.158,-5.504 -15.201,-9.58l-0.06,0.048l0.001,0z"/>
 </g>
</svg>